<?xml version="1.0" encoding="UTF-8"?>
<svg viewBox="0 0 640 480" xmlns="http://www.w3.org/2000/svg">
 <g fill="#fff" fill-rule="evenodd" stroke-linejoin="round">
  <path d="m319.05 356.74s9.327 44.94 19.502 58.506c10.175 13.567 12.719 11.871 15.263-6.783s-15.263-37.309 15.262-16.958c30.526 20.35 56.811 45.787 41.549 14.414-15.263-31.373-19.503-39.004 1.695-27.981s41.549 19.502 16.11-11.023c-19.501-22.046 19.502-27.982 26.286-30.525 16.111 2.544-68.681-44.941-77.16-44.941-9.328 1.696-55.116 58.507-58.507 65.291z" fill-opacity=".696" stroke-width="12.5"/>
  <g stroke="#000">
   <g stroke-width="10">
    <path d="m52.806 48.099c78.857 1.6957 278.12 33.917 354.43 229.79-26.286 5.088-90.727 67.834-100.9 102.6-194.17-99.206-249.29-256.07-253.53-332.38z"/>
    <path d="m198.65 309.26s3.391 86.488 3.391 87.336c0 0.84799 104.3 48.332 110.23 50.876l-5.087-67.834c-9.327 0.84799-92.424-52.571-108.53-70.378z"/>
    <path d="m339.73 168.35s85.531 3.82 86.379 3.8409c0.84775 0.020828 45.754 105.45 48.152 111.45l-67.688-6.7524c-9.0987-33.046-46.893-88.6-66.842-108.54z"/>
    <path d="m270.32 227.17s14.26 34.123 16.667 39.686c2.9538 3.7483 77.589 64.656 83.068 68.074l-3.1789-21.681c-7.9942-7.6986-76.803-68.016-96.556-86.079z"/>
    <path d="m267.64 226.4l-16.768 24.28 20.645 35.734 85.754 67.744 12.388-18.546-81.991-69.24-20.026-39.973z"/>
   </g>
   <path d="m159.64 148.15c-28.83 39.004 30.524 87.336 58.506 52.571 33.917-42.396-24.589-83.096-58.506-52.571z" stroke-width="12.5"/>
   <path d="m167.28 152.39c21.198-20.35 70.377 4.24 48.332 40.701-24.59 31.372-74.617-8.479-48.332-40.701z" stroke-width="10"/>
  </g>
  <path d="m183.39 151.5c-6.8609 4.7376-24.9 19.624-10.175 37.352 12.719 3.392 30.525-35.656 10.175-37.352z" fill-opacity=".75" stroke-width="12.5"/>
 </g>
</svg>
